<?xml version="1.0" encoding="UTF-8" standalone="no"?><!DOCTYPE svg PUBLIC "-//W3C//DTD SVG 1.1//EN" "http://www.w3.org/Graphics/SVG/1.1/DTD/svg11.dtd"><svg width="100%" height="100%" viewBox="0 0 1000 1000" version="1.1" xmlns="http://www.w3.org/2000/svg" xmlns:xlink="http://www.w3.org/1999/xlink" xml:space="preserve" xmlns:serif="http://www.serif.com/" style="fill-rule:evenodd;clip-rule:evenodd;stroke-linejoin:round;stroke-miterlimit:1.41421;"><path d="M193.523,231.399c-18.685,-0.133 -29.855,-20.484 -25.71,-38.37c4.926,-21.509 29.845,-38.515 55.767,-38.537l0.423,0l313.635,-0.346l-102.885,-83.682l0.056,-0.056c-16.003,-13.15 -9.402,-38.302 8.618,-50.884c17.787,-12.448 40.439,-8.17 56.643,4.267c0.234,0.134 0.424,0.323 0.624,0.491l246.735,189.453l-0.066,0.022c24.45,18.957 88.113,70.989 93.322,137.903c5.653,72.617 -33.467,162.183 -33.467,162.183c0,0 -131.611,290.753 -195.942,432.874c-8.739,19.305 -25.735,33.626 -46.243,38.964c-20.508,5.338 -42.33,1.121 -59.371,-11.475c-96.313,-71.504 -264.996,-216.119 -340.52,-398.901c-51.69,-125.101 220.912,-349.106 439.667,-256.376c69.424,29.429 -45.055,178.487 -70.666,210.427c-3.224,3.953 -7.393,7.027 -12.122,8.939c-0.13,0.061 -0.264,0.115 -0.4,0.17c-10.179,4.114 -21.804,2.177 -30.099,-5.015c-8.294,-7.193 -11.857,-18.428 -9.225,-29.086c0,-0.001 0,-0.002 0,-0.002c0.339,-1.371 0.994,-2.644 1.914,-3.716c13.419,-15.951 116.16,-142.117 8.838,-141.982c-155.162,0.194 -274.542,126.8 -220.154,211.17c61.078,94.748 159.143,124.979 236.872,110.053c77.73,-14.927 142.445,-42.643 229.504,-199.611c88.999,-160.489 -67.723,-245.957 -120.28,-247.585c-215.732,-6.675 -310.536,-0.479 -425.468,-1.292Z" style="fill:#f5792a;"/><path d="M422.978,503.319c-0.996,-5.956 1.407,-11.971 6.233,-15.601c4.825,-3.629 11.271,-4.27 16.716,-1.66c0.001,0 0.001,0 0.001,0c10.353,4.96 17.878,14.37 20.441,25.56c1.487,6.494 3.239,14.142 4.997,21.819c2.309,10.081 8.97,18.62 18.186,23.315c9.216,4.694 20.039,5.06 29.551,1c15.032,-6.416 31.335,-13.375 42.605,-18.186c8.992,-3.837 19.232,-3.43 27.89,1.111c0,0 0.001,0 0.001,0.001c5.228,2.741 8.464,8.196 8.365,14.099c-0.1,5.902 -3.518,11.245 -8.836,13.809c-35.59,17.159 -96.014,46.292 -125.868,60.685c-4.197,2.024 -9.102,1.954 -13.239,-0.189c-4.137,-2.143 -7.025,-6.109 -7.794,-10.704c-4.747,-28.378 -13.615,-81.384 -19.249,-115.059Z" style="fill:#f5792a;"/></svg>